<?xml version="1.0" ?><svg id="Icons" viewBox="0 0 60 60" xmlns="http://www.w3.org/2000/svg"><defs><style>.cls-1{fill:#d2d7db;}.cls-2{fill:#fcc46d;}.cls-3{fill:#373737;}</style></defs><path class="cls-1" d="M33,29V40h4a2.006,2.006,0,0,1,2,2v1a2.006,2.006,0,0,1-2,2H33v4h4a2.006,2.006,0,0,1,2,2v1a2.006,2.006,0,0,1-2,2H33v2a3,3,0,0,1-6,0V29l3-3Z"/><path class="cls-2" d="M39.93,12.19A9.389,9.389,0,0,0,40,11a10,10,0,0,0-20,0,9.389,9.389,0,0,0,.07,1.19A10,10,0,1,0,30,27.99a10,10,0,1,0,9.93-15.8ZM22,27a5,5,0,1,1,5-5A5,5,0,0,1,22,27Zm8-11a5,5,0,1,1,5-5A5,5,0,0,1,30,16Zm8,11a5,5,0,1,1,5-5A5,5,0,0,1,38,27Z"/><path class="cls-3" d="M30,5a6,6,0,1,0,6,6A6.006,6.006,0,0,0,30,5Zm0,10a4,4,0,1,1,4-4A4,4,0,0,1,30,15Z"/><path class="cls-3" d="M16,22a6,6,0,1,0,6-6A6.006,6.006,0,0,0,16,22Zm10,0a4,4,0,1,1-4-4A4,4,0,0,1,26,22Z"/><path class="cls-3" d="M11,22A10.953,10.953,0,0,0,26,32.225V56a4,4,0,0,0,8,0V55h3a3,3,0,0,0,3-3V51a3,3,0,0,0-3-3H34V46h3a3,3,0,0,0,3-3V42a3,3,0,0,0-3-3H34V32.225a10.989,10.989,0,1,0,6.993-20.808c0-.136.007-.274.007-.417A11.013,11.013,0,0,0,30,0a10.883,10.883,0,0,0-4.8,1.1,1,1,0,1,0,.875,1.8A8.913,8.913,0,0,1,30,2a9.01,9.01,0,0,1,9,9,8.336,8.336,0,0,1-.062,1.062,1,1,0,0,0,.8,1.11A9,9,0,1,1,30.8,27.391a1.038,1.038,0,0,0-1.6,0,9,9,0,1,1-8.937-14.219,1,1,0,0,0,.8-1.11A8.336,8.336,0,0,1,21,11a8.944,8.944,0,0,1,2.575-6.3,1,1,0,1,0-1.428-1.4A10.936,10.936,0,0,0,19,11c0,.143,0,.281.007.417A11.016,11.016,0,0,0,11,22Zm19,7.54a11.017,11.017,0,0,0,2,1.654V40a1,1,0,0,0,1,1h4a1,1,0,0,1,1,1v1a1,1,0,0,1-1,1H33a1,1,0,0,0-1,1v4a1,1,0,0,0,1,1h4a1,1,0,0,1,1,1v1a1,1,0,0,1-1,1H33a1,1,0,0,0-1,1v2a2,2,0,0,1-4,0V31.194A11.017,11.017,0,0,0,30,29.54Z"/><path class="cls-3" d="M32,22a6,6,0,1,0,6-6A6.006,6.006,0,0,0,32,22Zm6-4a4,4,0,1,1-4,4A4,4,0,0,1,38,18Z"/></svg>